<svg width="112" height="112" viewBox="0 0 112 112" fill="none" xmlns="http://www.w3.org/2000/svg">
<path fill-rule="evenodd" clip-rule="evenodd" d="M34.7611 4.72469C41.4946 1.93555 48.7116 0.5 56 0.5C63.2884 0.5 70.5054 1.93555 77.2389 4.72469C83.9725 7.51382 90.0908 11.6019 95.2444 16.7556C100.398 21.9092 104.486 28.0275 107.275 34.7611C110.064 41.4946 111.5 48.7116 111.5 56C111.5 63.2884 110.064 70.5054 107.275 77.2389C104.486 83.9725 100.398 90.0908 95.2444 95.2444C90.0908 100.398 83.9725 104.486 77.2389 107.275C70.5054 110.064 63.2884 111.5 56 111.5C48.7116 111.5 41.4946 110.064 34.7611 107.275C28.0275 104.486 21.9092 100.398 16.7556 95.2444C11.6019 90.0908 7.51382 83.9725 4.72469 77.2389C1.93555 70.5054 0.5 63.2884 0.5 56C0.5 48.7116 1.93555 41.4946 4.72469 34.7611C7.51382 28.0275 11.6019 21.9092 16.7556 16.7556C21.9092 11.6019 28.0275 7.51382 34.7611 4.72469ZM56 9.03846C49.8329 9.03846 43.7262 10.2532 38.0286 12.6132C32.331 14.9732 27.154 18.4324 22.7932 22.7932C18.4324 27.154 14.9732 32.331 12.6132 38.0286C10.2532 43.7262 9.03846 49.8329 9.03846 56C9.03846 62.1671 10.2532 68.2738 12.6132 73.9714C14.9732 79.669 18.4324 84.846 22.7932 89.2068C27.154 93.5676 32.331 97.0268 38.0286 99.3868C43.7262 101.747 49.8329 102.962 56 102.962C62.1671 102.962 68.2738 101.747 73.9714 99.3868C79.669 97.0268 84.846 93.5676 89.2068 89.2068C93.5676 84.846 97.0268 79.669 99.3868 73.9714C101.747 68.2738 102.962 62.1671 102.962 56C102.962 49.8329 101.747 43.7262 99.3868 38.0286C97.0268 32.331 93.5676 27.154 89.2068 22.7932C84.846 18.4324 79.669 14.9732 73.9714 12.6132C68.2738 10.2532 62.1671 9.03846 56 9.03846Z" fill="#FF3B30"/>
<path fill-rule="evenodd" clip-rule="evenodd" d="M41.5873 41.5952C43.2546 39.9279 45.9577 39.9279 47.6249 41.5952L55.9908 49.961L64.3566 41.5952C66.0238 39.9279 68.7269 39.9279 70.3942 41.5952C72.0614 43.2624 72.0614 45.9655 70.3942 47.6328L62.0284 55.9986L70.3942 64.3644C72.0614 66.0316 72.0614 68.7348 70.3942 70.402C68.7269 72.0692 66.0238 72.0692 64.3566 70.402L55.9908 62.0362L47.6249 70.402C45.9577 72.0692 43.2546 72.0692 41.5873 70.402C39.9201 68.7348 39.9201 66.0316 41.5873 64.3644L49.9532 55.9986L41.5873 47.6328C39.9201 45.9655 39.9201 43.2624 41.5873 41.5952Z" fill="#FF3B30"/>
</svg>
