<svg width="10" height="10" viewBox="0 0 10 10" fill="none" xmlns="http://www.w3.org/2000/svg">
<g clip-path="url(#clip0_663_515)">
<path d="M4.99992 5.58301L6.20825 6.79134C6.28464 6.86773 6.38186 6.90593 6.49992 6.90593C6.61797 6.90593 6.7152 6.86773 6.79159 6.79134C6.86797 6.71495 6.90617 6.61773 6.90617 6.49968C6.90617 6.38162 6.86797 6.2844 6.79159 6.20801L5.58325 4.99967L6.79159 3.79134C6.86797 3.71495 6.90617 3.61773 6.90617 3.49967C6.90617 3.38162 6.86797 3.2844 6.79159 3.20801C6.7152 3.13162 6.61797 3.09342 6.49992 3.09342C6.38186 3.09342 6.28464 3.13162 6.20825 3.20801L4.99992 4.41634L3.79159 3.20801C3.7152 3.13162 3.61797 3.09342 3.49992 3.09342C3.38186 3.09342 3.28464 3.13162 3.20825 3.20801C3.13186 3.2844 3.09367 3.38162 3.09367 3.49967C3.09367 3.61773 3.13186 3.71495 3.20825 3.79134L4.41659 4.99967L3.20825 6.20801C3.13186 6.2844 3.09367 6.38162 3.09367 6.49968C3.09367 6.61773 3.13186 6.71495 3.20825 6.79134C3.28464 6.86773 3.38186 6.90593 3.49992 6.90593C3.61797 6.90593 3.7152 6.86773 3.79159 6.79134L4.99992 5.58301ZM4.99992 9.16634C4.42353 9.16634 3.88186 9.05697 3.37492 8.83822C2.86797 8.61947 2.427 8.32259 2.052 7.94759C1.677 7.57259 1.38013 7.13162 1.16138 6.62468C0.942627 6.11773 0.833252 5.57606 0.833252 4.99967C0.833252 4.42329 0.942627 3.88162 1.16138 3.37467C1.38013 2.86773 1.677 2.42676 2.052 2.05176C2.427 1.67676 2.86797 1.37988 3.37492 1.16113C3.88186 0.942383 4.42353 0.833008 4.99992 0.833008C5.57631 0.833008 6.11797 0.942383 6.62492 1.16113C7.13186 1.37988 7.57284 1.67676 7.94784 2.05176C8.32284 2.42676 8.61971 2.86773 8.83846 3.37467C9.05721 3.88162 9.16659 4.42329 9.16659 4.99967C9.16659 5.57606 9.05721 6.11773 8.83846 6.62468C8.61971 7.13162 8.32284 7.57259 7.94784 7.94759C7.57284 8.32259 7.13186 8.61947 6.62492 8.83822C6.11797 9.05697 5.57631 9.16634 4.99992 9.16634Z" fill="#D40808"/>
</g>
<defs>
<clipPath id="clip0_663_515">
<rect width="10" height="10" fill="white"/>
</clipPath>
</defs>
</svg>
