<svg width="12" height="12" viewBox="0 0 10 10" fill="none" xmlns="http://www.w3.org/2000/svg">
<path d="M5.00016 8.41634C4.52139 8.41634 4.0813 8.32608 3.67231 8.14959C3.24876 7.96683 2.8878 7.72249 2.58258 7.41726C2.27735 7.11203 2.03301 6.75108 1.85025 6.32753C1.67376 5.91854 1.5835 5.47845 1.5835 4.99967C1.5835 4.5209 1.67376 4.08081 1.85025 3.67182C2.03301 3.24827 2.27735 2.88732 2.58258 2.58209C2.8878 2.27686 3.24876 2.03252 3.67231 1.84976C4.0813 1.67327 4.52139 1.58301 5.00016 1.58301C5.47894 1.58301 5.91902 1.67327 6.32802 1.84976C6.75157 2.03252 7.11252 2.27686 7.41775 2.58209C7.72298 2.88732 7.96732 3.24827 8.15008 3.67182C8.32656 4.08081 8.41683 4.5209 8.41683 4.99967C8.41683 5.47845 8.32656 5.91854 8.15008 6.32753C7.96732 6.75108 7.72298 7.11203 7.41775 7.41726C7.11252 7.72249 6.75157 7.96683 6.32802 8.14959C5.91902 8.32608 5.47894 8.41634 5.00016 8.41634Z" stroke="#667785" stroke-width="1.5"/>
</svg>
