<svg width="12" height="12" viewBox="0 0 10 10" fill="none" xmlns="http://www.w3.org/2000/svg">
<path d="M4.41683 5.74968L3.521 4.85384C3.44461 4.77745 3.34739 4.73926 3.22933 4.73926C3.11127 4.73926 3.01405 4.77745 2.93766 4.85384C2.86127 4.93023 2.82308 5.02745 2.82308 5.14551C2.82308 5.26356 2.86127 5.36079 2.93766 5.43717L4.12516 6.62468C4.2085 6.70801 4.30572 6.74968 4.41683 6.74968C4.52794 6.74968 4.62516 6.70801 4.7085 6.62468L7.06266 4.27051C7.13905 4.19412 7.17725 4.0969 7.17725 3.97884C7.17725 3.86079 7.13905 3.76356 7.06266 3.68717C6.98627 3.61079 6.88905 3.57259 6.771 3.57259C6.65294 3.57259 6.55572 3.61079 6.47933 3.68717L4.41683 5.74968ZM5.00016 9.16634C4.42377 9.16634 3.88211 9.05697 3.37516 8.83822C2.86822 8.61947 2.42725 8.32259 2.05225 7.94759C1.67725 7.57259 1.38037 7.13162 1.16162 6.62468C0.942871 6.11773 0.833496 5.57606 0.833496 4.99967C0.833496 4.42329 0.942871 3.88162 1.16162 3.37467C1.38037 2.86773 1.67725 2.42676 2.05225 2.05176C2.42725 1.67676 2.86822 1.37988 3.37516 1.16113C3.88211 0.942383 4.42377 0.833008 5.00016 0.833008C5.57655 0.833008 6.11822 0.942383 6.62516 1.16113C7.13211 1.37988 7.57308 1.67676 7.94808 2.05176C8.32308 2.42676 8.61996 2.86773 8.83871 3.37467C9.05746 3.88162 9.16683 4.42329 9.16683 4.99967C9.16683 5.57606 9.05746 6.11773 8.83871 6.62468C8.61996 7.13162 8.32308 7.57259 7.94808 7.94759C7.57308 8.32259 7.13211 8.61947 6.62516 8.83822C6.11822 9.05697 5.57655 9.16634 5.00016 9.16634Z" fill="#227409"/>
</svg>
